<svg xmlns="http://www.w3.org/2000/svg" width="100%" height="100%" viewBox="0 0 80 80" fill="none" id="Logo"><g id="logomark"><path d="M59.1198 6.896H20.8798L1.75977 40.0001L20.8798 73.1041H59.1198L78.2398 40.0001L59.1198 6.896Z" stroke="black" stroke-width="0.8" stroke-miterlimit="10"></path><path d="M23.4558 8.62394C23.6318 8.44794 40.8638 8.33594 41.1358 8.33594C41.4078 8.33594 58.6398 8.44794 58.7358 8.62394C58.8318 8.79994 76.0158 38.48 76.0158 38.752C76.0158 39.024 58.9918 68.704 58.8158 68.88C58.6398 69.056 41.4078 69.152 41.2158 69.152C41.0238 69.152 23.7118 69.056 23.6158 68.88C23.5198 68.704 6.17578 39.024 6.17578 38.752C6.17578 38.48 23.2798 8.79994 23.4558 8.62394Z" stroke="black" stroke-width="0.8" stroke-miterlimit="10"></path><path d="M26.0162 10.368C26.3842 10.016 41.7282 9.79199 42.2722 9.79199C42.8162 9.79199 58.1762 10.016 58.5282 10.368C58.8802 10.72 73.9682 36.96 73.9682 37.568C73.9682 38.176 58.8802 64.352 58.5282 64.768C58.1762 65.184 42.8162 65.344 42.2722 65.344C41.7282 65.344 26.3842 65.12 26.0162 64.768C25.6482 64.416 10.5762 38.176 10.5762 37.568C10.5762 36.96 25.6002 10.72 26.0162 10.368Z" stroke="black" stroke-width="0.8" stroke-miterlimit="10"></path><path d="M28.5922 12.1122C29.1202 11.5682 42.6082 11.2002 43.4082 11.2002C44.2082 11.2002 57.6962 11.5202 58.2242 12.0642C58.7522 12.6082 71.8402 35.4402 71.8402 36.2562C71.8402 37.0722 58.7522 59.8722 58.2242 60.4002C57.6962 60.9282 44.2242 61.2642 43.4082 61.2642C42.5922 61.2642 29.1202 60.9282 28.5922 60.4002C28.0642 59.8722 14.9922 37.0562 14.9922 36.2562C14.9922 35.4562 28.0642 12.6402 28.5922 12.1122Z" stroke="black" stroke-width="0.8" stroke-miterlimit="10"></path><path d="M31.1686 13.8401C31.8726 13.1361 43.4726 12.7041 44.5446 12.7041C45.6166 12.7041 57.2326 13.1361 57.9366 13.8401C58.6406 14.5441 69.6966 33.92 69.6966 35.008C69.6966 36.096 58.6406 55.456 57.9366 56.16C57.2326 56.864 45.6326 57.312 44.5446 57.312C43.4566 57.312 31.8726 56.864 31.1686 56.16C30.4646 55.456 19.3926 36.08 19.3926 35.008C19.3926 33.936 30.4006 14.5441 31.1686 13.8401Z" stroke="black" stroke-width="0.8" stroke-miterlimit="10"></path><path d="M33.7274 15.584C34.6234 14.688 44.3354 14.144 45.6794 14.144C47.0234 14.144 56.7514 14.688 57.6314 15.584C58.5114 16.4801 67.5674 32.4001 67.5674 33.7601C67.5674 35.1201 58.5274 51.0401 57.5994 51.9201C56.6714 52.8001 47.0074 53.3601 45.6474 53.3601C44.2874 53.3601 34.5914 52.8161 33.6954 51.9201C32.7994 51.0241 23.7754 35.1041 23.7754 33.7601C23.7754 32.4161 32.8474 16.4641 33.7274 15.584Z" stroke="black" stroke-width="0.8" stroke-miterlimit="10"></path><path d="M36.303 17.3121C37.359 16.2561 45.199 15.6001 46.815 15.6001C48.431 15.6001 56.287 16.2561 57.343 17.3121C58.399 18.3681 65.439 30.8801 65.439 32.4961C65.439 34.1121 58.399 46.6241 57.343 47.6961C56.287 48.7681 48.447 49.4081 46.815 49.4081C45.183 49.4081 37.359 48.7521 36.303 47.6961C35.247 46.6401 28.207 34.1281 28.207 32.4961C28.207 30.8641 35.199 18.3841 36.303 17.3121Z" stroke="black" stroke-width="0.8" stroke-miterlimit="10"></path><path d="M38.8639 19.0557C40.1119 17.8237 46.0639 17.0557 47.9519 17.0557C49.8399 17.0557 55.8079 17.8237 57.0399 19.0557C58.2719 20.2877 63.2959 29.3597 63.2959 31.2477C63.2959 33.1357 58.2879 42.2077 57.0399 43.4557C55.7919 44.7037 49.8559 45.4557 47.9999 45.4557C46.1439 45.4557 40.1599 44.6877 38.9119 43.4557C37.6639 42.2237 32.6719 33.1517 32.6719 31.2477C32.6719 29.3437 37.6319 20.2877 38.8639 19.0557Z" stroke="black" stroke-width="0.8" stroke-miterlimit="10"></path><path d="M41.4394 20.8001C42.8474 19.3761 46.9274 18.4961 49.0874 18.4961C51.2474 18.4961 55.3274 19.3761 56.7514 20.8001C58.1754 22.2241 61.1674 27.8401 61.1674 30.0001C61.1674 32.1601 58.1594 37.7921 56.7514 39.2161C55.3434 40.6401 51.1994 41.5041 49.0874 41.5041C46.9754 41.5041 42.8474 40.6241 41.4394 39.2161C40.0314 37.8081 37.0234 32.1601 37.0234 30.0001C37.0234 27.8401 39.9994 22.2081 41.4394 20.8001Z" stroke="black" stroke-width="0.8" stroke-miterlimit="10"></path><path d="M59.0402 28.7998C59.0447 30.8396 58.3418 32.818 57.0511 34.3975C55.7603 35.9772 53.9619 37.0604 51.9621 37.4625C49.9621 37.8646 47.8848 37.5607 46.0839 36.6028C44.2829 35.6447 42.8699 34.0918 42.0858 32.2087C41.3015 30.3257 41.1946 28.2289 41.7832 26.2758C42.3717 24.3227 43.6194 22.634 45.3135 21.4979C47.0075 20.3615 49.0434 19.8479 51.0738 20.0444C53.104 20.2411 55.0035 21.1356 56.4482 22.5758C57.2709 23.3897 57.9239 24.3591 58.3688 25.4276C58.8138 26.4961 59.0419 27.6423 59.0402 28.7998Z" stroke="black" stroke-width="0.8" stroke-miterlimit="10"></path></g></svg>